<svg xmlns="http://www.w3.org/2000/svg" xmlns:xlink="http://www.w3.org/1999/xlink" version="1.1" class="marks" width="1488" height="414" viewBox="0 0 1488 414"><rect width="1488" height="414" fill="white"/><g fill="none" stroke-miterlimit="10" transform="translate(54,70)"><g class="mark-group role-frame root" role="graphics-object" aria-roledescription="group mark container"><g transform="translate(0,0)"><path class="background" aria-hidden="true" d="M0,0h0v0h0Z"/><g><g class="mark-group role-column-title column-title" role="graphics-object" aria-roledescription="group mark container"><g transform="translate(645,-39)"><path class="background" aria-hidden="true" d="M0,0h0v0h0Z"/><g><g class="mark-group role-title"><g transform="translate(0,-26)"><path class="background" aria-hidden="true" d="M0,0h0v0h0Z" pointer-events="none"/><g><g class="mark-text role-title-text" role="graphics-symbol" aria-roledescription="title" aria-label="Title text 'Frequency (Hz)'" pointer-events="none"><text text-anchor="middle" transform="translate(0,13)" font-family="sans-serif" font-size="16px" font-weight="bold" fill="#000" opacity="1">Frequency (Hz)</text></g></g><path class="foreground" aria-hidden="true" d="" pointer-events="none" display="none"/></g></g></g><path class="foreground" aria-hidden="true" d="" display="none"/></g></g><g class="mark-group role-row-header row_header" role="graphics-object" aria-roledescription="group mark container"><g transform="translate(-5,0)"><path class="background" aria-hidden="true" d="M0,0h0v300h0Z"/><g><g class="mark-group role-axis" role="graphics-symbol" aria-roledescription="axis" aria-label="Y-axis titled '95% Confidence Interval' for a linear scale with values from −0.4 to 2.4"><g transform="translate(0.5,0.5)"><path class="background" aria-hidden="true" d="M0,0h0v0h0Z" pointer-events="none"/><g><g class="mark-rule role-axis-tick" pointer-events="none"><line transform="translate(0,257)" x2="-5" y2="0" stroke="#888" stroke-width="1" opacity="1"/><line transform="translate(0,204)" x2="-5" y2="0" stroke="#888" stroke-width="1" opacity="1"/><line transform="translate(0,150)" x2="-5" y2="0" stroke="#888" stroke-width="1" opacity="1"/><line transform="translate(0,96)" x2="-5" y2="0" stroke="#888" stroke-width="1" opacity="1"/><line transform="translate(0,43)" x2="-5" y2="0" stroke="#888" stroke-width="1" opacity="1"/></g><g class="mark-text role-axis-label" pointer-events="none"><text text-anchor="end" transform="translate(-7,261.1428571428571)" font-family="sans-serif" font-size="13px" fill="#000" opacity="1">0.0</text><text text-anchor="end" transform="translate(-7,207.57142857142858)" font-family="sans-serif" font-size="13px" fill="#000" opacity="1">0.5</text><text text-anchor="end" transform="translate(-7,154)" font-family="sans-serif" font-size="13px" fill="#000" opacity="1">1.0</text><text text-anchor="end" transform="translate(-7,100.42857142857142)" font-family="sans-serif" font-size="13px" fill="#000" opacity="1">1.5</text><text text-anchor="end" transform="translate(-7,46.85714285714284)" font-family="sans-serif" font-size="13px" fill="#000" opacity="1">2.0</text></g><g class="mark-rule role-axis-domain" pointer-events="none"><line transform="translate(0,300)" x2="0" y2="-300" stroke="#888" stroke-width="1" opacity="1"/></g><g class="mark-text role-axis-title" pointer-events="none"><text text-anchor="middle" transform="translate(-29.07177734375,150) rotate(-90) translate(0,-3)" font-family="sans-serif" font-size="14px" font-weight="bold" fill="#000" opacity="1">95% Confidence Interval</text></g></g><path class="foreground" aria-hidden="true" d="" pointer-events="none" display="none"/></g></g></g><path class="foreground" aria-hidden="true" d="" display="none"/></g></g><g class="mark-group role-column-header column_header" role="graphics-object" aria-roledescription="group mark container"><g transform="translate(0,-1)"><path class="background" aria-hidden="true" d="M0,0h300v0h-300Z"/><g><g class="mark-group role-title"><g transform="translate(150,-28)"><path class="background" aria-hidden="true" d="M0,0h0v0h0Z" pointer-events="none"/><g><g class="mark-text role-title-text" role="graphics-symbol" aria-roledescription="title" aria-label="Title text '55'" pointer-events="none"><text text-anchor="middle" transform="translate(0,14)" font-family="sans-serif" font-size="18px" fill="#000" opacity="1">55</text></g></g><path class="foreground" aria-hidden="true" d="" pointer-events="none" display="none"/></g></g></g><path class="foreground" aria-hidden="true" d="" display="none"/></g><g transform="translate(330,-1)"><path class="background" aria-hidden="true" d="M0,0h300v0h-300Z"/><g><g class="mark-group role-title"><g transform="translate(150,-28)"><path class="background" aria-hidden="true" d="M0,0h0v0h0Z" pointer-events="none"/><g><g class="mark-text role-title-text" role="graphics-symbol" aria-roledescription="title" aria-label="Title text '70'" pointer-events="none"><text text-anchor="middle" transform="translate(0,14)" font-family="sans-serif" font-size="18px" fill="#000" opacity="1">70</text></g></g><path class="foreground" aria-hidden="true" d="" pointer-events="none" display="none"/></g></g></g><path class="foreground" aria-hidden="true" d="" display="none"/></g><g transform="translate(660,-1)"><path class="background" aria-hidden="true" d="M0,0h300v0h-300Z"/><g><g class="mark-group role-title"><g transform="translate(150,-28)"><path class="background" aria-hidden="true" d="M0,0h0v0h0Z" pointer-events="none"/><g><g class="mark-text role-title-text" role="graphics-symbol" aria-roledescription="title" aria-label="Title text '100'" pointer-events="none"><text text-anchor="middle" transform="translate(0,14)" font-family="sans-serif" font-size="18px" fill="#000" opacity="1">100</text></g></g><path class="foreground" aria-hidden="true" d="" pointer-events="none" display="none"/></g></g></g><path class="foreground" aria-hidden="true" d="" display="none"/></g><g transform="translate(990,-1)"><path class="background" aria-hidden="true" d="M0,0h300v0h-300Z"/><g><g class="mark-group role-title"><g transform="translate(150,-28)"><path class="background" aria-hidden="true" d="M0,0h0v0h0Z" pointer-events="none"/><g><g class="mark-text role-title-text" role="graphics-symbol" aria-roledescription="title" aria-label="Title text '220'" pointer-events="none"><text text-anchor="middle" transform="translate(0,14)" font-family="sans-serif" font-size="18px" fill="#000" opacity="1">220</text></g></g><path class="foreground" aria-hidden="true" d="" pointer-events="none" display="none"/></g></g></g><path class="foreground" aria-hidden="true" d="" display="none"/></g></g><g class="mark-group role-column-footer column_footer" role="graphics-object" aria-roledescription="group mark container"><g transform="translate(0,301)"><path class="background" aria-hidden="true" d="M0,0h300v0h-300Z"/><g><g class="mark-group role-axis" role="graphics-symbol" aria-roledescription="axis" aria-label="X-axis titled 'Stimulus Amplitude' for a linear scale with values from 90 to 125"><g transform="translate(0.5,0.5)"><path class="background" aria-hidden="true" d="M0,0h0v0h0Z" pointer-events="none"/><g><g class="mark-rule role-axis-tick" pointer-events="none"><line transform="translate(0,0)" x2="0" y2="5" stroke="#888" stroke-width="1" opacity="1"/><line transform="translate(43,0)" x2="0" y2="5" stroke="#888" stroke-width="1" opacity="1"/><line transform="translate(86,0)" x2="0" y2="5" stroke="#888" stroke-width="1" opacity="1"/><line transform="translate(129,0)" x2="0" y2="5" stroke="#888" stroke-width="1" opacity="1"/><line transform="translate(171,0)" x2="0" y2="5" stroke="#888" stroke-width="1" opacity="1"/><line transform="translate(214,0)" x2="0" y2="5" stroke="#888" stroke-width="1" opacity="1"/><line transform="translate(257,0)" x2="0" y2="5" stroke="#888" stroke-width="1" opacity="1"/><line transform="translate(300,0)" x2="0" y2="5" stroke="#888" stroke-width="1" opacity="1"/></g><g class="mark-text role-axis-label" pointer-events="none"><text text-anchor="start" transform="translate(0,17)" font-family="sans-serif" font-size="13px" fill="#000" opacity="1">90</text><text text-anchor="middle" transform="translate(42.857142857142854,17)" font-family="sans-serif" font-size="13px" fill="#000" opacity="1">95</text><text text-anchor="middle" transform="translate(85.71428571428571,17)" font-family="sans-serif" font-size="13px" fill="#000" opacity="1">100</text><text text-anchor="middle" transform="translate(128.57142857142856,17)" font-family="sans-serif" font-size="13px" fill="#000" opacity="1">105</text><text text-anchor="middle" transform="translate(171.42857142857142,17)" font-family="sans-serif" font-size="13px" fill="#000" opacity="1">110</text><text text-anchor="middle" transform="translate(214.28571428571428,17)" font-family="sans-serif" font-size="13px" fill="#000" opacity="1">115</text><text text-anchor="middle" transform="translate(257.1428571428571,17)" font-family="sans-serif" font-size="13px" fill="#000" opacity="1">120</text><text text-anchor="end" transform="translate(300,17)" font-family="sans-serif" font-size="13px" fill="#000" opacity="1">125</text></g><g class="mark-rule role-axis-domain" pointer-events="none"><line transform="translate(0,0)" x2="300" y2="0" stroke="#888" stroke-width="1" opacity="1"/></g><g class="mark-text role-axis-title" pointer-events="none"><text text-anchor="middle" transform="translate(150,35)" font-family="sans-serif" font-size="14px" font-weight="bold" fill="#000" opacity="1">Stimulus Amplitude</text></g></g><path class="foreground" aria-hidden="true" d="" pointer-events="none" display="none"/></g></g></g><path class="foreground" aria-hidden="true" d="" display="none"/></g><g transform="translate(330,301)"><path class="background" aria-hidden="true" d="M0,0h300v0h-300Z"/><g><g class="mark-group role-axis" role="graphics-symbol" aria-roledescription="axis" aria-label="X-axis titled 'Stimulus Amplitude' for a linear scale with values from 90 to 125"><g transform="translate(0.5,0.5)"><path class="background" aria-hidden="true" d="M0,0h0v0h0Z" pointer-events="none"/><g><g class="mark-rule role-axis-tick" pointer-events="none"><line transform="translate(0,0)" x2="0" y2="5" stroke="#888" stroke-width="1" opacity="1"/><line transform="translate(43,0)" x2="0" y2="5" stroke="#888" stroke-width="1" opacity="1"/><line transform="translate(86,0)" x2="0" y2="5" stroke="#888" stroke-width="1" opacity="1"/><line transform="translate(129,0)" x2="0" y2="5" stroke="#888" stroke-width="1" opacity="1"/><line transform="translate(171,0)" x2="0" y2="5" stroke="#888" stroke-width="1" opacity="1"/><line transform="translate(214,0)" x2="0" y2="5" stroke="#888" stroke-width="1" opacity="1"/><line transform="translate(257,0)" x2="0" y2="5" stroke="#888" stroke-width="1" opacity="1"/><line transform="translate(300,0)" x2="0" y2="5" stroke="#888" stroke-width="1" opacity="1"/></g><g class="mark-text role-axis-label" pointer-events="none"><text text-anchor="start" transform="translate(0,17)" font-family="sans-serif" font-size="13px" fill="#000" opacity="1">90</text><text text-anchor="middle" transform="translate(42.857142857142854,17)" font-family="sans-serif" font-size="13px" fill="#000" opacity="1">95</text><text text-anchor="middle" transform="translate(85.71428571428571,17)" font-family="sans-serif" font-size="13px" fill="#000" opacity="1">100</text><text text-anchor="middle" transform="translate(128.57142857142856,17)" font-family="sans-serif" font-size="13px" fill="#000" opacity="1">105</text><text text-anchor="middle" transform="translate(171.42857142857142,17)" font-family="sans-serif" font-size="13px" fill="#000" opacity="1">110</text><text text-anchor="middle" transform="translate(214.28571428571428,17)" font-family="sans-serif" font-size="13px" fill="#000" opacity="1">115</text><text text-anchor="middle" transform="translate(257.1428571428571,17)" font-family="sans-serif" font-size="13px" fill="#000" opacity="1">120</text><text text-anchor="end" transform="translate(300,17)" font-family="sans-serif" font-size="13px" fill="#000" opacity="1">125</text></g><g class="mark-rule role-axis-domain" pointer-events="none"><line transform="translate(0,0)" x2="300" y2="0" stroke="#888" stroke-width="1" opacity="1"/></g><g class="mark-text role-axis-title" pointer-events="none"><text text-anchor="middle" transform="translate(150,35)" font-family="sans-serif" font-size="14px" font-weight="bold" fill="#000" opacity="1">Stimulus Amplitude</text></g></g><path class="foreground" aria-hidden="true" d="" pointer-events="none" display="none"/></g></g></g><path class="foreground" aria-hidden="true" d="" display="none"/></g><g transform="translate(660,301)"><path class="background" aria-hidden="true" d="M0,0h300v0h-300Z"/><g><g class="mark-group role-axis" role="graphics-symbol" aria-roledescription="axis" aria-label="X-axis titled 'Stimulus Amplitude' for a linear scale with values from 90 to 125"><g transform="translate(0.5,0.5)"><path class="background" aria-hidden="true" d="M0,0h0v0h0Z" pointer-events="none"/><g><g class="mark-rule role-axis-tick" pointer-events="none"><line transform="translate(0,0)" x2="0" y2="5" stroke="#888" stroke-width="1" opacity="1"/><line transform="translate(43,0)" x2="0" y2="5" stroke="#888" stroke-width="1" opacity="1"/><line transform="translate(86,0)" x2="0" y2="5" stroke="#888" stroke-width="1" opacity="1"/><line transform="translate(129,0)" x2="0" y2="5" stroke="#888" stroke-width="1" opacity="1"/><line transform="translate(171,0)" x2="0" y2="5" stroke="#888" stroke-width="1" opacity="1"/><line transform="translate(214,0)" x2="0" y2="5" stroke="#888" stroke-width="1" opacity="1"/><line transform="translate(257,0)" x2="0" y2="5" stroke="#888" stroke-width="1" opacity="1"/><line transform="translate(300,0)" x2="0" y2="5" stroke="#888" stroke-width="1" opacity="1"/></g><g class="mark-text role-axis-label" pointer-events="none"><text text-anchor="start" transform="translate(0,17)" font-family="sans-serif" font-size="13px" fill="#000" opacity="1">90</text><text text-anchor="middle" transform="translate(42.857142857142854,17)" font-family="sans-serif" font-size="13px" fill="#000" opacity="1">95</text><text text-anchor="middle" transform="translate(85.71428571428571,17)" font-family="sans-serif" font-size="13px" fill="#000" opacity="1">100</text><text text-anchor="middle" transform="translate(128.57142857142856,17)" font-family="sans-serif" font-size="13px" fill="#000" opacity="1">105</text><text text-anchor="middle" transform="translate(171.42857142857142,17)" font-family="sans-serif" font-size="13px" fill="#000" opacity="1">110</text><text text-anchor="middle" transform="translate(214.28571428571428,17)" font-family="sans-serif" font-size="13px" fill="#000" opacity="1">115</text><text text-anchor="middle" transform="translate(257.1428571428571,17)" font-family="sans-serif" font-size="13px" fill="#000" opacity="1">120</text><text text-anchor="end" transform="translate(300,17)" font-family="sans-serif" font-size="13px" fill="#000" opacity="1">125</text></g><g class="mark-rule role-axis-domain" pointer-events="none"><line transform="translate(0,0)" x2="300" y2="0" stroke="#888" stroke-width="1" opacity="1"/></g><g class="mark-text role-axis-title" pointer-events="none"><text text-anchor="middle" transform="translate(150,35)" font-family="sans-serif" font-size="14px" font-weight="bold" fill="#000" opacity="1">Stimulus Amplitude</text></g></g><path class="foreground" aria-hidden="true" d="" pointer-events="none" display="none"/></g></g></g><path class="foreground" aria-hidden="true" d="" display="none"/></g><g transform="translate(990,301)"><path class="background" aria-hidden="true" d="M0,0h300v0h-300Z"/><g><g class="mark-group role-axis" role="graphics-symbol" aria-roledescription="axis" aria-label="X-axis titled 'Stimulus Amplitude' for a linear scale with values from 90 to 125"><g transform="translate(0.5,0.5)"><path class="background" aria-hidden="true" d="M0,0h0v0h0Z" pointer-events="none"/><g><g class="mark-rule role-axis-tick" pointer-events="none"><line transform="translate(0,0)" x2="0" y2="5" stroke="#888" stroke-width="1" opacity="1"/><line transform="translate(43,0)" x2="0" y2="5" stroke="#888" stroke-width="1" opacity="1"/><line transform="translate(86,0)" x2="0" y2="5" stroke="#888" stroke-width="1" opacity="1"/><line transform="translate(129,0)" x2="0" y2="5" stroke="#888" stroke-width="1" opacity="1"/><line transform="translate(171,0)" x2="0" y2="5" stroke="#888" stroke-width="1" opacity="1"/><line transform="translate(214,0)" x2="0" y2="5" stroke="#888" stroke-width="1" opacity="1"/><line transform="translate(257,0)" x2="0" y2="5" stroke="#888" stroke-width="1" opacity="1"/><line transform="translate(300,0)" x2="0" y2="5" stroke="#888" stroke-width="1" opacity="1"/></g><g class="mark-text role-axis-label" pointer-events="none"><text text-anchor="start" transform="translate(0,17)" font-family="sans-serif" font-size="13px" fill="#000" opacity="1">90</text><text text-anchor="middle" transform="translate(42.857142857142854,17)" font-family="sans-serif" font-size="13px" fill="#000" opacity="1">95</text><text text-anchor="middle" transform="translate(85.71428571428571,17)" font-family="sans-serif" font-size="13px" fill="#000" opacity="1">100</text><text text-anchor="middle" transform="translate(128.57142857142856,17)" font-family="sans-serif" font-size="13px" fill="#000" opacity="1">105</text><text text-anchor="middle" transform="translate(171.42857142857142,17)" font-family="sans-serif" font-size="13px" fill="#000" opacity="1">110</text><text text-anchor="middle" transform="translate(214.28571428571428,17)" font-family="sans-serif" font-size="13px" fill="#000" opacity="1">115</text><text text-anchor="middle" transform="translate(257.1428571428571,17)" font-family="sans-serif" font-size="13px" fill="#000" opacity="1">120</text><text text-anchor="end" transform="translate(300,17)" font-family="sans-serif" font-size="13px" fill="#000" opacity="1">125</text></g><g class="mark-rule role-axis-domain" pointer-events="none"><line transform="translate(0,0)" x2="300" y2="0" stroke="#888" stroke-width="1" opacity="1"/></g><g class="mark-text role-axis-title" pointer-events="none"><text text-anchor="middle" transform="translate(150,35)" font-family="sans-serif" font-size="14px" font-weight="bold" fill="#000" opacity="1">Stimulus Amplitude</text></g></g><path class="foreground" aria-hidden="true" d="" pointer-events="none" display="none"/></g></g></g><path class="foreground" aria-hidden="true" d="" display="none"/></g></g><g class="mark-group role-scope cell" role="graphics-object" aria-roledescription="group mark container"><g transform="translate(0,0)"><path class="background" aria-hidden="true" d="M0.5,0.5h300v300h-300Z" stroke="#ddd"/><g><g class="mark-group role-axis" aria-hidden="true"><g transform="translate(0.5,300.5)"><path class="background" aria-hidden="true" d="M0,0h0v0h0Z" pointer-events="none"/><g><g class="mark-rule role-axis-grid" pointer-events="none"><line transform="translate(0,-300)" x2="0" y2="300" stroke="#ddd" stroke-width="1" opacity="1"/><line transform="translate(43,-300)" x2="0" y2="300" stroke="#ddd" stroke-width="1" opacity="1"/><line transform="translate(86,-300)" x2="0" y2="300" stroke="#ddd" stroke-width="1" opacity="1"/><line transform="translate(129,-300)" x2="0" y2="300" stroke="#ddd" stroke-width="1" opacity="1"/><line transform="translate(171,-300)" x2="0" y2="300" stroke="#ddd" stroke-width="1" opacity="1"/><line transform="translate(214,-300)" x2="0" y2="300" stroke="#ddd" stroke-width="1" opacity="1"/><line transform="translate(257,-300)" x2="0" y2="300" stroke="#ddd" stroke-width="1" opacity="1"/><line transform="translate(300,-300)" x2="0" y2="300" stroke="#ddd" stroke-width="1" opacity="1"/></g></g><path class="foreground" aria-hidden="true" d="" pointer-events="none" display="none"/></g></g><g class="mark-group role-axis" aria-hidden="true"><g transform="translate(0.5,0.5)"><path class="background" aria-hidden="true" d="M0,0h0v0h0Z" pointer-events="none"/><g><g class="mark-rule role-axis-grid" pointer-events="none"><line transform="translate(0,257)" x2="300" y2="0" stroke="#ddd" stroke-width="1" opacity="1"/><line transform="translate(0,204)" x2="300" y2="0" stroke="#ddd" stroke-width="1" opacity="1"/><line transform="translate(0,150)" x2="300" y2="0" stroke="#ddd" stroke-width="1" opacity="1"/><line transform="translate(0,96)" x2="300" y2="0" stroke="#ddd" stroke-width="1" opacity="1"/><line transform="translate(0,43)" x2="300" y2="0" stroke="#ddd" stroke-width="1" opacity="1"/></g></g><path class="foreground" aria-hidden="true" d="" pointer-events="none" display="none"/></g></g><g class="mark-group role-scope child_layer_0_pathgroup" role="graphics-object" aria-roledescription="group mark container"><g transform="translate(0,0)"><path class="background" aria-hidden="true" d="M0,0h300v300h-300Z"/><g><g class="mark-area role-mark child_layer_0_marks" role="graphics-object" aria-roledescription="area mark container"><path aria-label="Stimulus Amplitude: 90; 95% Confidence Interval: −0.10215328691; CI_upper: 0.0309572631602; Frequency (Hz): 55" role="graphics-symbol" aria-roledescription="area mark" d="M0,268.088L42.857,269.837L85.714,277.091L128.571,250.993L171.429,165.28L214.286,99.222L214.286,41.983L171.429,113.73L128.571,202.319L85.714,237.665L42.857,246.345L0,253.826Z" fill="rgb(65, 68, 135)" opacity="0.3"/></g></g><path class="foreground" aria-hidden="true" d="" display="none"/></g></g><g class="mark-rule role-mark child_layer_1_marks" role="graphics-symbol" aria-roledescription="rule mark container"><line transform="translate(300,257.1428571428571)" x2="-300" y2="0" stroke="black" stroke-width="0.5" stroke-dasharray="5,5" opacity="0.3"/><line transform="translate(300,257.1428571428571)" x2="-300" y2="0" stroke="black" stroke-width="0.5" stroke-dasharray="5,5" opacity="0.3"/><line transform="translate(300,257.1428571428571)" x2="-300" y2="0" stroke="black" stroke-width="0.5" stroke-dasharray="5,5" opacity="0.3"/><line transform="translate(300,257.1428571428571)" x2="-300" y2="0" stroke="black" stroke-width="0.5" stroke-dasharray="5,5" opacity="0.3"/><line transform="translate(300,257.1428571428571)" x2="-300" y2="0" stroke="black" stroke-width="0.5" stroke-dasharray="5,5" opacity="0.3"/><line transform="translate(300,257.1428571428571)" x2="-300" y2="0" stroke="black" stroke-width="0.5" stroke-dasharray="5,5" opacity="0.3"/></g><g class="mark-group role-scope child_layer_2_pathgroup" role="graphics-object" aria-roledescription="group mark container"><g transform="translate(0,0)"><path class="background" aria-hidden="true" d="M0,0h300v300h-300Z"/><g><g class="mark-line role-mark child_layer_2_marks" role="graphics-object" aria-roledescription="line mark container"><path aria-label="Amplitude: 90; Midpoint: −0.035598011875; Frequency: 55" role="graphics-symbol" aria-roledescription="line mark" d="M0,260.957L42.857,258.091L85.714,257.378L128.571,226.656L171.429,139.505L214.286,70.603" stroke="rgb(65, 68, 135)" stroke-width="2"/></g></g><path class="foreground" aria-hidden="true" d="" display="none"/></g></g><g class="mark-symbol role-mark child_layer_3_marks" role="graphics-object" aria-roledescription="symbol mark container"><path aria-label="Amplitude: 115; Midpoint: 1.74104139964; Frequency: 55; CI_lower: 1.4739280024; CI_upper: 2.00815479688" role="graphics-symbol" aria-roledescription="circle" transform="translate(214.28571428571428,70.60270718172158)" d="M3.873,0A3.873,3.873,0,1,1,-3.873,0A3.873,3.873,0,1,1,3.873,0" fill="rgb(65, 68, 135)" stroke-width="2" opacity="0.7"/><path aria-label="Amplitude: 110; Midpoint: 1.09795578735; Frequency: 55; CI_lower: 0.857388072069; CI_upper: 1.33852350263" role="graphics-symbol" aria-roledescription="circle" transform="translate(171.42857142857142,139.5047370694345)" d="M3.873,0A3.873,3.873,0,1,1,-3.873,0A3.873,3.873,0,1,1,3.873,0" fill="rgb(65, 68, 135)" stroke-width="2" opacity="0.7"/><path aria-label="Amplitude: 105; Midpoint: 0.284541049496; Frequency: 55; CI_lower: 0.0573964006274; CI_upper: 0.511685698365" role="graphics-symbol" aria-roledescription="circle" transform="translate(128.57142857142856,226.65631612539485)" d="M3.873,0A3.873,3.873,0,1,1,-3.873,0A3.873,3.873,0,1,1,3.873,0" fill="rgb(65, 68, 135)" stroke-width="2" opacity="0.7"/><path aria-label="Amplitude: 100; Midpoint: −0.00219664707092; Frequency: 55; CI_lower: −0.186183622925; CI_upper: 0.181790328783" role="graphics-symbol" aria-roledescription="circle" transform="translate(85.71428571428571,257.37821218616955)" d="M3.873,0A3.873,3.873,0,1,1,-3.873,0A3.873,3.873,0,1,1,3.873,0" fill="rgb(65, 68, 135)" stroke-width="2" opacity="0.7"/><path aria-label="Amplitude: 95; Midpoint: −0.008852146975; Frequency: 55; CI_lower: −0.118482860798; CI_upper: 0.100778566848" role="graphics-symbol" aria-roledescription="circle" transform="translate(42.857142857142854,258.09130146160715)" d="M3.873,0A3.873,3.873,0,1,1,-3.873,0A3.873,3.873,0,1,1,3.873,0" fill="rgb(65, 68, 135)" stroke-width="2" opacity="0.7"/><path aria-label="Amplitude: 90; Midpoint: −0.035598011875; Frequency: 55; CI_lower: −0.10215328691; CI_upper: 0.0309572631602" role="graphics-symbol" aria-roledescription="circle" transform="translate(0,260.95692984375466)" d="M3.873,0A3.873,3.873,0,1,1,-3.873,0A3.873,3.873,0,1,1,3.873,0" fill="rgb(65, 68, 135)" stroke-width="2" opacity="0.7"/></g></g><path class="foreground" aria-hidden="true" d="" display="none"/></g><g transform="translate(330,0)"><path class="background" aria-hidden="true" d="M0.5,0.5h300v300h-300Z" stroke="#ddd"/><g><g class="mark-group role-axis" aria-hidden="true"><g transform="translate(0.5,300.5)"><path class="background" aria-hidden="true" d="M0,0h0v0h0Z" pointer-events="none"/><g><g class="mark-rule role-axis-grid" pointer-events="none"><line transform="translate(0,-300)" x2="0" y2="300" stroke="#ddd" stroke-width="1" opacity="1"/><line transform="translate(43,-300)" x2="0" y2="300" stroke="#ddd" stroke-width="1" opacity="1"/><line transform="translate(86,-300)" x2="0" y2="300" stroke="#ddd" stroke-width="1" opacity="1"/><line transform="translate(129,-300)" x2="0" y2="300" stroke="#ddd" stroke-width="1" opacity="1"/><line transform="translate(171,-300)" x2="0" y2="300" stroke="#ddd" stroke-width="1" opacity="1"/><line transform="translate(214,-300)" x2="0" y2="300" stroke="#ddd" stroke-width="1" opacity="1"/><line transform="translate(257,-300)" x2="0" y2="300" stroke="#ddd" stroke-width="1" opacity="1"/><line transform="translate(300,-300)" x2="0" y2="300" stroke="#ddd" stroke-width="1" opacity="1"/></g></g><path class="foreground" aria-hidden="true" d="" pointer-events="none" display="none"/></g></g><g class="mark-group role-axis" aria-hidden="true"><g transform="translate(0.5,0.5)"><path class="background" aria-hidden="true" d="M0,0h0v0h0Z" pointer-events="none"/><g><g class="mark-rule role-axis-grid" pointer-events="none"><line transform="translate(0,257)" x2="300" y2="0" stroke="#ddd" stroke-width="1" opacity="1"/><line transform="translate(0,204)" x2="300" y2="0" stroke="#ddd" stroke-width="1" opacity="1"/><line transform="translate(0,150)" x2="300" y2="0" stroke="#ddd" stroke-width="1" opacity="1"/><line transform="translate(0,96)" x2="300" y2="0" stroke="#ddd" stroke-width="1" opacity="1"/><line transform="translate(0,43)" x2="300" y2="0" stroke="#ddd" stroke-width="1" opacity="1"/></g></g><path class="foreground" aria-hidden="true" d="" pointer-events="none" display="none"/></g></g><g class="mark-group role-scope child_layer_0_pathgroup" role="graphics-object" aria-roledescription="group mark container"><g transform="translate(0,0)"><path class="background" aria-hidden="true" d="M0,0h300v300h-300Z"/><g><g class="mark-area role-mark child_layer_0_marks" role="graphics-object" aria-roledescription="area mark container"><path aria-label="Stimulus Amplitude: 90; 95% Confidence Interval: −0.0499665120104; CI_upper: 0.162825479788; Frequency (Hz): 70" role="graphics-symbol" aria-roledescription="area mark" d="M0,262.496L42.857,246.309L85.714,188.604L128.571,153.622L171.429,137.364L214.286,54.643L214.286,22.299L171.429,89.583L128.571,107.904L85.714,133.185L42.857,203.301L0,239.697Z" fill="rgb(42, 120, 142)" opacity="0.3"/></g></g><path class="foreground" aria-hidden="true" d="" display="none"/></g></g><g class="mark-rule role-mark child_layer_1_marks" role="graphics-symbol" aria-roledescription="rule mark container"><line transform="translate(300,257.1428571428571)" x2="-300" y2="0" stroke="black" stroke-width="0.5" stroke-dasharray="5,5" opacity="0.3"/><line transform="translate(300,257.1428571428571)" x2="-300" y2="0" stroke="black" stroke-width="0.5" stroke-dasharray="5,5" opacity="0.3"/><line transform="translate(300,257.1428571428571)" x2="-300" y2="0" stroke="black" stroke-width="0.5" stroke-dasharray="5,5" opacity="0.3"/><line transform="translate(300,257.1428571428571)" x2="-300" y2="0" stroke="black" stroke-width="0.5" stroke-dasharray="5,5" opacity="0.3"/><line transform="translate(300,257.1428571428571)" x2="-300" y2="0" stroke="black" stroke-width="0.5" stroke-dasharray="5,5" opacity="0.3"/><line transform="translate(300,257.1428571428571)" x2="-300" y2="0" stroke="black" stroke-width="0.5" stroke-dasharray="5,5" opacity="0.3"/></g><g class="mark-group role-scope child_layer_2_pathgroup" role="graphics-object" aria-roledescription="group mark container"><g transform="translate(0,0)"><path class="background" aria-hidden="true" d="M0,0h300v300h-300Z"/><g><g class="mark-line role-mark child_layer_2_marks" role="graphics-object" aria-roledescription="line mark container"><path aria-label="Amplitude: 90; Midpoint: 0.0564294838886; Frequency: 70" role="graphics-symbol" aria-roledescription="line mark" d="M0,251.097L42.857,224.805L85.714,160.894L128.571,130.763L171.429,113.474L214.286,38.471" stroke="rgb(42, 120, 142)" stroke-width="2"/></g></g><path class="foreground" aria-hidden="true" d="" display="none"/></g></g><g class="mark-symbol role-mark child_layer_3_marks" role="graphics-object" aria-roledescription="symbol mark container"><path aria-label="Amplitude: 90; Midpoint: 0.0564294838886; Frequency: 70; CI_lower: −0.0499665120104; CI_upper: 0.162825479788" role="graphics-symbol" aria-roledescription="circle" transform="translate(0,251.0968410119369)" d="M3.873,0A3.873,3.873,0,1,1,-3.873,0A3.873,3.873,0,1,1,3.873,0" fill="rgb(42, 120, 142)" stroke-width="2" opacity="0.7"/><path aria-label="Amplitude: 95; Midpoint: 0.30182019493; Frequency: 70; CI_lower: 0.101120306105; CI_upper: 0.502520083754" role="graphics-symbol" aria-roledescription="circle" transform="translate(42.857142857142854,224.80497911469223)" d="M3.873,0A3.873,3.873,0,1,1,-3.873,0A3.873,3.873,0,1,1,3.873,0" fill="rgb(42, 120, 142)" stroke-width="2" opacity="0.7"/><path aria-label="Amplitude: 100; Midpoint: 0.898318043745; Frequency: 70; CI_lower: 0.639691848361; CI_upper: 1.15694423913" role="graphics-symbol" aria-roledescription="circle" transform="translate(85.71428571428571,160.89449531298513)" d="M3.873,0A3.873,3.873,0,1,1,-3.873,0A3.873,3.873,0,1,1,3.873,0" fill="rgb(42, 120, 142)" stroke-width="2" opacity="0.7"/><path aria-label="Amplitude: 105; Midpoint: 1.1795442617; Frequency: 70; CI_lower: 0.966196754033; CI_upper: 1.39289176937" role="graphics-symbol" aria-roledescription="circle" transform="translate(128.57142857142856,130.76311481751114)" d="M3.873,0A3.873,3.873,0,1,1,-3.873,0A3.873,3.873,0,1,1,3.873,0" fill="rgb(42, 120, 142)" stroke-width="2" opacity="0.7"/><path aria-label="Amplitude: 110; Midpoint: 1.3409115697; Frequency: 70; CI_lower: 1.11793412065; CI_upper: 1.56388901875" role="graphics-symbol" aria-roledescription="circle" transform="translate(171.42857142857142,113.47376038888314)" d="M3.873,0A3.873,3.873,0,1,1,-3.873,0A3.873,3.873,0,1,1,3.873,0" fill="rgb(42, 120, 142)" stroke-width="2" opacity="0.7"/><path aria-label="Amplitude: 115; Midpoint: 2.04093938403; Frequency: 70; CI_lower: 1.89000280485; CI_upper: 2.19187596322" role="graphics-symbol" aria-roledescription="circle" transform="translate(214.28571428571428,38.47078028212854)" d="M3.873,0A3.873,3.873,0,1,1,-3.873,0A3.873,3.873,0,1,1,3.873,0" fill="rgb(42, 120, 142)" stroke-width="2" opacity="0.7"/></g></g><path class="foreground" aria-hidden="true" d="" display="none"/></g><g transform="translate(660,0)"><path class="background" aria-hidden="true" d="M0.5,0.5h300v300h-300Z" stroke="#ddd"/><g><g class="mark-group role-axis" aria-hidden="true"><g transform="translate(0.5,300.5)"><path class="background" aria-hidden="true" d="M0,0h0v0h0Z" pointer-events="none"/><g><g class="mark-rule role-axis-grid" pointer-events="none"><line transform="translate(0,-300)" x2="0" y2="300" stroke="#ddd" stroke-width="1" opacity="1"/><line transform="translate(43,-300)" x2="0" y2="300" stroke="#ddd" stroke-width="1" opacity="1"/><line transform="translate(86,-300)" x2="0" y2="300" stroke="#ddd" stroke-width="1" opacity="1"/><line transform="translate(129,-300)" x2="0" y2="300" stroke="#ddd" stroke-width="1" opacity="1"/><line transform="translate(171,-300)" x2="0" y2="300" stroke="#ddd" stroke-width="1" opacity="1"/><line transform="translate(214,-300)" x2="0" y2="300" stroke="#ddd" stroke-width="1" opacity="1"/><line transform="translate(257,-300)" x2="0" y2="300" stroke="#ddd" stroke-width="1" opacity="1"/><line transform="translate(300,-300)" x2="0" y2="300" stroke="#ddd" stroke-width="1" opacity="1"/></g></g><path class="foreground" aria-hidden="true" d="" pointer-events="none" display="none"/></g></g><g class="mark-group role-axis" aria-hidden="true"><g transform="translate(0.5,0.5)"><path class="background" aria-hidden="true" d="M0,0h0v0h0Z" pointer-events="none"/><g><g class="mark-rule role-axis-grid" pointer-events="none"><line transform="translate(0,257)" x2="300" y2="0" stroke="#ddd" stroke-width="1" opacity="1"/><line transform="translate(0,204)" x2="300" y2="0" stroke="#ddd" stroke-width="1" opacity="1"/><line transform="translate(0,150)" x2="300" y2="0" stroke="#ddd" stroke-width="1" opacity="1"/><line transform="translate(0,96)" x2="300" y2="0" stroke="#ddd" stroke-width="1" opacity="1"/><line transform="translate(0,43)" x2="300" y2="0" stroke="#ddd" stroke-width="1" opacity="1"/></g></g><path class="foreground" aria-hidden="true" d="" pointer-events="none" display="none"/></g></g><g class="mark-group role-scope child_layer_0_pathgroup" role="graphics-object" aria-roledescription="group mark container"><g transform="translate(0,0)"><path class="background" aria-hidden="true" d="M0,0h300v300h-300Z"/><g><g class="mark-area role-mark child_layer_0_marks" role="graphics-object" aria-roledescription="area mark container"><path aria-label="Stimulus Amplitude: 95; 95% Confidence Interval: −0.00914186861637; CI_upper: 0.134936315521; Frequency (Hz): 100" role="graphics-symbol" aria-roledescription="area mark" d="M42.857,258.122L85.714,234.701L128.571,156.875L171.429,101.941L214.286,87.952L214.286,10.411L171.429,74.793L128.571,131.581L85.714,208.882L42.857,242.685Z" fill="rgb(34, 168, 132)" opacity="0.3"/></g></g><path class="foreground" aria-hidden="true" d="" display="none"/></g></g><g class="mark-rule role-mark child_layer_1_marks" role="graphics-symbol" aria-roledescription="rule mark container"><line transform="translate(300,257.1428571428571)" x2="-300" y2="0" stroke="black" stroke-width="0.5" stroke-dasharray="5,5" opacity="0.3"/><line transform="translate(300,257.1428571428571)" x2="-300" y2="0" stroke="black" stroke-width="0.5" stroke-dasharray="5,5" opacity="0.3"/><line transform="translate(300,257.1428571428571)" x2="-300" y2="0" stroke="black" stroke-width="0.5" stroke-dasharray="5,5" opacity="0.3"/><line transform="translate(300,257.1428571428571)" x2="-300" y2="0" stroke="black" stroke-width="0.5" stroke-dasharray="5,5" opacity="0.3"/><line transform="translate(300,257.1428571428571)" x2="-300" y2="0" stroke="black" stroke-width="0.5" stroke-dasharray="5,5" opacity="0.3"/></g><g class="mark-group role-scope child_layer_2_pathgroup" role="graphics-object" aria-roledescription="group mark container"><g transform="translate(0,0)"><path class="background" aria-hidden="true" d="M0,0h300v300h-300Z"/><g><g class="mark-line role-mark child_layer_2_marks" role="graphics-object" aria-roledescription="line mark container"><path aria-label="Amplitude: 95; Midpoint: 0.0628972234522; Frequency: 100" role="graphics-symbol" aria-roledescription="line mark" d="M42.857,250.404L85.714,221.792L128.571,144.228L171.429,88.367L214.286,49.182" stroke="rgb(34, 168, 132)" stroke-width="2"/></g></g><path class="foreground" aria-hidden="true" d="" display="none"/></g></g><g class="mark-symbol role-mark child_layer_3_marks" role="graphics-object" aria-roledescription="symbol mark container"><path aria-label="Amplitude: 115; Midpoint: 1.94096885434; Frequency: 100; CI_lower: 1.57911019354; CI_upper: 2.30282751513" role="graphics-symbol" aria-roledescription="circle" transform="translate(214.28571428571428,49.18190846392524)" d="M3.873,0A3.873,3.873,0,1,1,-3.873,0A3.873,3.873,0,1,1,3.873,0" fill="rgb(34, 168, 132)" stroke-width="2" opacity="0.7"/><path aria-label="Amplitude: 110; Midpoint: 1.57524028457; Frequency: 100; CI_lower: 1.44855166741; CI_upper: 1.70192890173" role="graphics-symbol" aria-roledescription="circle" transform="translate(171.42857142857142,88.36711236712391)" d="M3.873,0A3.873,3.873,0,1,1,-3.873,0A3.873,3.873,0,1,1,3.873,0" fill="rgb(34, 168, 132)" stroke-width="2" opacity="0.7"/><path aria-label="Amplitude: 105; Midpoint: 1.05387177952; Frequency: 100; CI_lower: 0.935829601946; CI_upper: 1.17191395709" role="graphics-symbol" aria-roledescription="circle" transform="translate(128.57142857142856,144.2280236231986)" d="M3.873,0A3.873,3.873,0,1,1,-3.873,0A3.873,3.873,0,1,1,3.873,0" fill="rgb(34, 168, 132)" stroke-width="2" opacity="0.7"/><path aria-label="Amplitude: 100; Midpoint: 0.32994450007; Frequency: 100; CI_lower: 0.209457596094; CI_upper: 0.450431404046" role="graphics-symbol" aria-roledescription="circle" transform="translate(85.71428571428571,221.7916607067958)" d="M3.873,0A3.873,3.873,0,1,1,-3.873,0A3.873,3.873,0,1,1,3.873,0" fill="rgb(34, 168, 132)" stroke-width="2" opacity="0.7"/><path aria-label="Amplitude: 95; Midpoint: 0.0628972234522; Frequency: 100; CI_lower: −0.00914186861637; CI_upper: 0.134936315521" role="graphics-symbol" aria-roledescription="circle" transform="translate(42.857142857142854,250.40386891583103)" d="M3.873,0A3.873,3.873,0,1,1,-3.873,0A3.873,3.873,0,1,1,3.873,0" fill="rgb(34, 168, 132)" stroke-width="2" opacity="0.7"/></g></g><path class="foreground" aria-hidden="true" d="" display="none"/></g><g transform="translate(990,0)"><path class="background" aria-hidden="true" d="M0.5,0.5h300v300h-300Z" stroke="#ddd"/><g><g class="mark-group role-axis" aria-hidden="true"><g transform="translate(0.5,300.5)"><path class="background" aria-hidden="true" d="M0,0h0v0h0Z" pointer-events="none"/><g><g class="mark-rule role-axis-grid" pointer-events="none"><line transform="translate(0,-300)" x2="0" y2="300" stroke="#ddd" stroke-width="1" opacity="1"/><line transform="translate(43,-300)" x2="0" y2="300" stroke="#ddd" stroke-width="1" opacity="1"/><line transform="translate(86,-300)" x2="0" y2="300" stroke="#ddd" stroke-width="1" opacity="1"/><line transform="translate(129,-300)" x2="0" y2="300" stroke="#ddd" stroke-width="1" opacity="1"/><line transform="translate(171,-300)" x2="0" y2="300" stroke="#ddd" stroke-width="1" opacity="1"/><line transform="translate(214,-300)" x2="0" y2="300" stroke="#ddd" stroke-width="1" opacity="1"/><line transform="translate(257,-300)" x2="0" y2="300" stroke="#ddd" stroke-width="1" opacity="1"/><line transform="translate(300,-300)" x2="0" y2="300" stroke="#ddd" stroke-width="1" opacity="1"/></g></g><path class="foreground" aria-hidden="true" d="" pointer-events="none" display="none"/></g></g><g class="mark-group role-axis" aria-hidden="true"><g transform="translate(0.5,0.5)"><path class="background" aria-hidden="true" d="M0,0h0v0h0Z" pointer-events="none"/><g><g class="mark-rule role-axis-grid" pointer-events="none"><line transform="translate(0,257)" x2="300" y2="0" stroke="#ddd" stroke-width="1" opacity="1"/><line transform="translate(0,204)" x2="300" y2="0" stroke="#ddd" stroke-width="1" opacity="1"/><line transform="translate(0,150)" x2="300" y2="0" stroke="#ddd" stroke-width="1" opacity="1"/><line transform="translate(0,96)" x2="300" y2="0" stroke="#ddd" stroke-width="1" opacity="1"/><line transform="translate(0,43)" x2="300" y2="0" stroke="#ddd" stroke-width="1" opacity="1"/></g></g><path class="foreground" aria-hidden="true" d="" pointer-events="none" display="none"/></g></g><g class="mark-group role-scope child_layer_0_pathgroup" role="graphics-object" aria-roledescription="group mark container"><g transform="translate(0,0)"><path class="background" aria-hidden="true" d="M0,0h300v300h-300Z"/><g><g class="mark-area role-mark child_layer_0_marks" role="graphics-object" aria-roledescription="area mark container"><path aria-label="Stimulus Amplitude: 105; 95% Confidence Interval: −0.175891852555; CI_upper: 0.0548754126701; Frequency (Hz): 220" role="graphics-symbol" aria-roledescription="area mark" d="M128.571,275.988L171.429,289.955L214.286,290.263L214.286,290.263L257.143,263.245L300,261.587L300,218.499L257.143,226.203L214.286,240.448L214.286,240.448L171.429,247.616L128.571,251.263Z" fill="rgb(122, 209, 81)" opacity="0.3"/></g></g><path class="foreground" aria-hidden="true" d="" display="none"/></g></g><g class="mark-rule role-mark child_layer_1_marks" role="graphics-symbol" aria-roledescription="rule mark container"><line transform="translate(300,257.1428571428571)" x2="-300" y2="0" stroke="black" stroke-width="0.5" stroke-dasharray="5,5" opacity="0.3"/><line transform="translate(300,257.1428571428571)" x2="-300" y2="0" stroke="black" stroke-width="0.5" stroke-dasharray="5,5" opacity="0.3"/><line transform="translate(300,257.1428571428571)" x2="-300" y2="0" stroke="black" stroke-width="0.5" stroke-dasharray="5,5" opacity="0.3"/><line transform="translate(300,257.1428571428571)" x2="-300" y2="0" stroke="black" stroke-width="0.5" stroke-dasharray="5,5" opacity="0.3"/><line transform="translate(300,257.1428571428571)" x2="-300" y2="0" stroke="black" stroke-width="0.5" stroke-dasharray="5,5" opacity="0.3"/><line transform="translate(300,257.1428571428571)" x2="-300" y2="0" stroke="black" stroke-width="0.5" stroke-dasharray="5,5" opacity="0.3"/></g><g class="mark-group role-scope child_layer_2_pathgroup" role="graphics-object" aria-roledescription="group mark container"><g transform="translate(0,0)"><path class="background" aria-hidden="true" d="M0,0h300v300h-300Z"/><g><g class="mark-line role-mark child_layer_2_marks" role="graphics-object" aria-roledescription="line mark container"><path aria-label="Amplitude: 105; Midpoint: −0.0605082199424; Frequency: 220" role="graphics-symbol" aria-roledescription="line mark" d="M128.571,263.626L171.429,268.785L214.286,265.355L214.286,265.355L257.143,244.724L300,240.043" stroke="rgb(122, 209, 81)" stroke-width="2"/></g></g><path class="foreground" aria-hidden="true" d="" display="none"/></g></g><g class="mark-symbol role-mark child_layer_3_marks" role="graphics-object" aria-roledescription="symbol mark container"><path aria-label="Amplitude: 115; Midpoint: −0.0766486087027; Frequency: 220; CI_lower: −0.309120102523; CI_upper: 0.155822885118" role="graphics-symbol" aria-roledescription="circle" transform="translate(214.28571428571428,265.35520807529224)" d="M3.873,0A3.873,3.873,0,1,1,-3.873,0A3.873,3.873,0,1,1,3.873,0" fill="rgb(122, 209, 81)" stroke-width="2" opacity="0.7"/><path aria-label="Amplitude: 125; Midpoint: 0.159598912703; Frequency: 220; CI_lower: −0.0414795568642; CI_upper: 0.360677382271" role="graphics-symbol" aria-roledescription="circle" transform="translate(300,240.0429736389394)" d="M3.873,0A3.873,3.873,0,1,1,-3.873,0A3.873,3.873,0,1,1,3.873,0" fill="rgb(122, 209, 81)" stroke-width="2" opacity="0.7"/><path aria-label="Amplitude: 120; Midpoint: 0.115905568416; Frequency: 220; CI_lower: −0.0569573647532; CI_upper: 0.288768501585" role="graphics-symbol" aria-roledescription="circle" transform="translate(257.1428571428571,244.7244033840336)" d="M3.873,0A3.873,3.873,0,1,1,-3.873,0A3.873,3.873,0,1,1,3.873,0" fill="rgb(122, 209, 81)" stroke-width="2" opacity="0.7"/><path aria-label="Amplitude: 115; Midpoint: −0.0766486087027; Frequency: 220; CI_lower: −0.309120102523; CI_upper: 0.155822885118" role="graphics-symbol" aria-roledescription="circle" transform="translate(214.28571428571428,265.35520807529224)" d="M3.873,0A3.873,3.873,0,1,1,-3.873,0A3.873,3.873,0,1,1,3.873,0" fill="rgb(122, 209, 81)" stroke-width="2" opacity="0.7"/><path aria-label="Amplitude: 110; Midpoint: −0.108663559298; Frequency: 220; CI_lower: −0.306243924548; CI_upper: 0.0889168059525" role="graphics-symbol" aria-roledescription="circle" transform="translate(171.42857142857142,268.7853813533211)" d="M3.873,0A3.873,3.873,0,1,1,-3.873,0A3.873,3.873,0,1,1,3.873,0" fill="rgb(122, 209, 81)" stroke-width="2" opacity="0.7"/><path aria-label="Amplitude: 105; Midpoint: −0.0605082199424; Frequency: 220; CI_lower: −0.175891852555; CI_upper: 0.0548754126701" role="graphics-symbol" aria-roledescription="circle" transform="translate(128.57142857142856,263.6258807081151)" d="M3.873,0A3.873,3.873,0,1,1,-3.873,0A3.873,3.873,0,1,1,3.873,0" fill="rgb(122, 209, 81)" stroke-width="2" opacity="0.7"/></g></g><path class="foreground" aria-hidden="true" d="" display="none"/></g></g><g class="mark-group role-legend" role="graphics-symbol" aria-roledescription="legend" aria-label="Symbol legend titled 'Frequency (Hz)' for fill color and stroke color with 4 values: 55, 70, 100, 220"><g transform="translate(1313,0)"><path class="background" aria-hidden="true" d="M0,0h116v83h-116Z" pointer-events="none"/><g><g class="mark-group role-legend-entry"><g transform="translate(0,21)"><path class="background" aria-hidden="true" d="M0,0h0v0h0Z" pointer-events="none"/><g><g class="mark-group role-scope" role="graphics-object" aria-roledescription="group mark container"><g transform="translate(0,0)"><path class="background" aria-hidden="true" d="M0,0h38.68994140625v13.5h-38.68994140625Z" pointer-events="none" opacity="1"/><g><g class="mark-symbol role-legend-symbol" pointer-events="none"><path transform="translate(6.5,6.5)" d="M5,0A5,5,0,1,1,-5,0A5,5,0,1,1,5,0" fill="rgb(65, 68, 135)" stroke="rgb(65, 68, 135)" stroke-width="1.5" opacity="0.3"/></g><g class="mark-text role-legend-label" pointer-events="none"><text text-anchor="start" transform="translate(17,10.5)" font-family="sans-serif" font-size="13px" fill="#000" opacity="1">55</text></g></g><path class="foreground" aria-hidden="true" d="" pointer-events="none" display="none"/></g><g transform="translate(0,16)"><path class="background" aria-hidden="true" d="M0,0h38.68994140625v13.5h-38.68994140625Z" pointer-events="none" opacity="1"/><g><g class="mark-symbol role-legend-symbol" pointer-events="none"><path transform="translate(6.5,6.5)" d="M5,0A5,5,0,1,1,-5,0A5,5,0,1,1,5,0" fill="rgb(42, 120, 142)" stroke="rgb(42, 120, 142)" stroke-width="1.5" opacity="0.3"/></g><g class="mark-text role-legend-label" pointer-events="none"><text text-anchor="start" transform="translate(17,10.5)" font-family="sans-serif" font-size="13px" fill="#000" opacity="1">70</text></g></g><path class="foreground" aria-hidden="true" d="" pointer-events="none" display="none"/></g><g transform="translate(0,32)"><path class="background" aria-hidden="true" d="M0,0h38.68994140625v13.5h-38.68994140625Z" pointer-events="none" opacity="1"/><g><g class="mark-symbol role-legend-symbol" pointer-events="none"><path transform="translate(6.5,6.5)" d="M5,0A5,5,0,1,1,-5,0A5,5,0,1,1,5,0" fill="rgb(34, 168, 132)" stroke="rgb(34, 168, 132)" stroke-width="1.5" opacity="0.3"/></g><g class="mark-text role-legend-label" pointer-events="none"><text text-anchor="start" transform="translate(17,10.5)" font-family="sans-serif" font-size="13px" fill="#000" opacity="1">100</text></g></g><path class="foreground" aria-hidden="true" d="" pointer-events="none" display="none"/></g><g transform="translate(0,48)"><path class="background" aria-hidden="true" d="M0,0h38.68994140625v13.5h-38.68994140625Z" pointer-events="none" opacity="1"/><g><g class="mark-symbol role-legend-symbol" pointer-events="none"><path transform="translate(6.5,6.5)" d="M5,0A5,5,0,1,1,-5,0A5,5,0,1,1,5,0" fill="rgb(122, 209, 81)" stroke="rgb(122, 209, 81)" stroke-width="1.5" opacity="0.3"/></g><g class="mark-text role-legend-label" pointer-events="none"><text text-anchor="start" transform="translate(17,10.5)" font-family="sans-serif" font-size="13px" fill="#000" opacity="1">220</text></g></g><path class="foreground" aria-hidden="true" d="" pointer-events="none" display="none"/></g></g></g><path class="foreground" aria-hidden="true" d="" pointer-events="none" display="none"/></g></g><g class="mark-text role-legend-title" pointer-events="none"><text text-anchor="start" transform="translate(0,13)" font-family="sans-serif" font-size="16px" font-weight="bold" fill="#000" opacity="1">Frequency (Hz)</text></g></g><path class="foreground" aria-hidden="true" d="" pointer-events="none" display="none"/></g></g></g><path class="foreground" aria-hidden="true" d="" display="none"/></g></g></g></svg>