<svg xmlns="http://www.w3.org/2000/svg" xmlns:xlink="http://www.w3.org/1999/xlink" version="1.1" class="marks" width="432" height="382" viewBox="0 0 432 382"><rect width="432" height="382" fill="white"/><g fill="none" stroke-miterlimit="10" transform="translate(66,39)"><g class="mark-group role-frame root" role="graphics-object" aria-roledescription="group mark container"><g transform="translate(0,0)"><path class="background" aria-hidden="true" d="M0.5,0.5h300v300h-300Z" stroke="#ddd"/><g><g class="mark-group role-axis" aria-hidden="true"><g transform="translate(0.5,300.5)"><path class="background" aria-hidden="true" d="M0,0h0v0h0Z" pointer-events="none"/><g><g class="mark-rule role-axis-grid" pointer-events="none"><line transform="translate(0,-300)" x2="0" y2="300" stroke="#ddd" stroke-width="1" opacity="1"/><line transform="translate(30,-300)" x2="0" y2="300" stroke="#ddd" stroke-width="1" opacity="1"/><line transform="translate(60,-300)" x2="0" y2="300" stroke="#ddd" stroke-width="1" opacity="1"/><line transform="translate(90,-300)" x2="0" y2="300" stroke="#ddd" stroke-width="1" opacity="1"/><line transform="translate(120,-300)" x2="0" y2="300" stroke="#ddd" stroke-width="1" opacity="1"/><line transform="translate(150,-300)" x2="0" y2="300" stroke="#ddd" stroke-width="1" opacity="1"/><line transform="translate(180,-300)" x2="0" y2="300" stroke="#ddd" stroke-width="1" opacity="1"/><line transform="translate(210,-300)" x2="0" y2="300" stroke="#ddd" stroke-width="1" opacity="1"/><line transform="translate(240,-300)" x2="0" y2="300" stroke="#ddd" stroke-width="1" opacity="1"/><line transform="translate(270,-300)" x2="0" y2="300" stroke="#ddd" stroke-width="1" opacity="1"/><line transform="translate(300,-300)" x2="0" y2="300" stroke="#ddd" stroke-width="1" opacity="1"/></g></g><path class="foreground" aria-hidden="true" d="" pointer-events="none" display="none"/></g></g><g class="mark-group role-axis" aria-hidden="true"><g transform="translate(0.5,0.5)"><path class="background" aria-hidden="true" d="M0,0h0v0h0Z" pointer-events="none"/><g><g class="mark-rule role-axis-grid" pointer-events="none"><line transform="translate(0,300)" x2="300" y2="0" stroke="#ddd" stroke-width="1" opacity="1"/><line transform="translate(0,263)" x2="300" y2="0" stroke="#ddd" stroke-width="1" opacity="1"/><line transform="translate(0,225)" x2="300" y2="0" stroke="#ddd" stroke-width="1" opacity="1"/><line transform="translate(0,188)" x2="300" y2="0" stroke="#ddd" stroke-width="1" opacity="1"/><line transform="translate(0,150)" x2="300" y2="0" stroke="#ddd" stroke-width="1" opacity="1"/><line transform="translate(0,113)" x2="300" y2="0" stroke="#ddd" stroke-width="1" opacity="1"/><line transform="translate(0,75)" x2="300" y2="0" stroke="#ddd" stroke-width="1" opacity="1"/><line transform="translate(0,38)" x2="300" y2="0" stroke="#ddd" stroke-width="1" opacity="1"/><line transform="translate(0,0)" x2="300" y2="0" stroke="#ddd" stroke-width="1" opacity="1"/></g></g><path class="foreground" aria-hidden="true" d="" pointer-events="none" display="none"/></g></g><g class="mark-group role-axis" role="graphics-symbol" aria-roledescription="axis" aria-label="X-axis titled 'Stimulus Frequency (Hz)' for a linear scale with values from 0 to 500"><g transform="translate(0.5,300.5)"><path class="background" aria-hidden="true" d="M0,0h0v0h0Z" pointer-events="none"/><g><g class="mark-rule role-axis-tick" pointer-events="none"><line transform="translate(0,0)" x2="0" y2="5" stroke="#888" stroke-width="1" opacity="1"/><line transform="translate(30,0)" x2="0" y2="5" stroke="#888" stroke-width="1" opacity="1"/><line transform="translate(60,0)" x2="0" y2="5" stroke="#888" stroke-width="1" opacity="1"/><line transform="translate(90,0)" x2="0" y2="5" stroke="#888" stroke-width="1" opacity="1"/><line transform="translate(120,0)" x2="0" y2="5" stroke="#888" stroke-width="1" opacity="1"/><line transform="translate(150,0)" x2="0" y2="5" stroke="#888" stroke-width="1" opacity="1"/><line transform="translate(180,0)" x2="0" y2="5" stroke="#888" stroke-width="1" opacity="1"/><line transform="translate(210,0)" x2="0" y2="5" stroke="#888" stroke-width="1" opacity="1"/><line transform="translate(240,0)" x2="0" y2="5" stroke="#888" stroke-width="1" opacity="1"/><line transform="translate(270,0)" x2="0" y2="5" stroke="#888" stroke-width="1" opacity="1"/><line transform="translate(300,0)" x2="0" y2="5" stroke="#888" stroke-width="1" opacity="1"/></g><g class="mark-text role-axis-label" pointer-events="none"><text text-anchor="start" transform="translate(0,17)" font-family="sans-serif" font-size="13px" fill="#000" opacity="1">0</text><text text-anchor="middle" transform="translate(30,17)" font-family="sans-serif" font-size="13px" fill="#000" opacity="0">50</text><text text-anchor="middle" transform="translate(60,17)" font-family="sans-serif" font-size="13px" fill="#000" opacity="1">100</text><text text-anchor="middle" transform="translate(90,17)" font-family="sans-serif" font-size="13px" fill="#000" opacity="0">150</text><text text-anchor="middle" transform="translate(120,17)" font-family="sans-serif" font-size="13px" fill="#000" opacity="1">200</text><text text-anchor="middle" transform="translate(150,17)" font-family="sans-serif" font-size="13px" fill="#000" opacity="0">250</text><text text-anchor="middle" transform="translate(180,17)" font-family="sans-serif" font-size="13px" fill="#000" opacity="1">300</text><text text-anchor="middle" transform="translate(210,17)" font-family="sans-serif" font-size="13px" fill="#000" opacity="0">350</text><text text-anchor="middle" transform="translate(240,17)" font-family="sans-serif" font-size="13px" fill="#000" opacity="1">400</text><text text-anchor="middle" transform="translate(270,17)" font-family="sans-serif" font-size="13px" fill="#000" opacity="0">450</text><text text-anchor="end" transform="translate(300,17)" font-family="sans-serif" font-size="13px" fill="#000" opacity="1">500</text></g><g class="mark-rule role-axis-domain" pointer-events="none"><line transform="translate(0,0)" x2="300" y2="0" stroke="#888" stroke-width="1" opacity="1"/></g><g class="mark-text role-axis-title" pointer-events="none"><text text-anchor="middle" transform="translate(150,35)" font-family="sans-serif" font-size="14px" font-weight="bold" fill="#000" opacity="1">Stimulus Frequency (Hz)</text></g></g><path class="foreground" aria-hidden="true" d="" pointer-events="none" display="none"/></g></g><g class="mark-group role-axis" role="graphics-symbol" aria-roledescription="axis" aria-label="Y-axis titled 'Auditory Threshold (dB)' for a linear scale with values from 70 to 150"><g transform="translate(0.5,0.5)"><path class="background" aria-hidden="true" d="M0,0h0v0h0Z" pointer-events="none"/><g><g class="mark-rule role-axis-tick" pointer-events="none"><line transform="translate(0,300)" x2="-5" y2="0" stroke="#888" stroke-width="1" opacity="1"/><line transform="translate(0,263)" x2="-5" y2="0" stroke="#888" stroke-width="1" opacity="1"/><line transform="translate(0,225)" x2="-5" y2="0" stroke="#888" stroke-width="1" opacity="1"/><line transform="translate(0,188)" x2="-5" y2="0" stroke="#888" stroke-width="1" opacity="1"/><line transform="translate(0,150)" x2="-5" y2="0" stroke="#888" stroke-width="1" opacity="1"/><line transform="translate(0,113)" x2="-5" y2="0" stroke="#888" stroke-width="1" opacity="1"/><line transform="translate(0,75)" x2="-5" y2="0" stroke="#888" stroke-width="1" opacity="1"/><line transform="translate(0,38)" x2="-5" y2="0" stroke="#888" stroke-width="1" opacity="1"/><line transform="translate(0,0)" x2="-5" y2="0" stroke="#888" stroke-width="1" opacity="1"/></g><g class="mark-text role-axis-label" pointer-events="none"><text text-anchor="end" transform="translate(-7,304)" font-family="sans-serif" font-size="13px" fill="#000" opacity="1">70</text><text text-anchor="end" transform="translate(-7,266.5)" font-family="sans-serif" font-size="13px" fill="#000" opacity="1">80</text><text text-anchor="end" transform="translate(-7,229)" font-family="sans-serif" font-size="13px" fill="#000" opacity="1">90</text><text text-anchor="end" transform="translate(-7,191.5)" font-family="sans-serif" font-size="13px" fill="#000" opacity="1">100</text><text text-anchor="end" transform="translate(-7,154)" font-family="sans-serif" font-size="13px" fill="#000" opacity="1">110</text><text text-anchor="end" transform="translate(-7,116.5)" font-family="sans-serif" font-size="13px" fill="#000" opacity="1">120</text><text text-anchor="end" transform="translate(-7,79)" font-family="sans-serif" font-size="13px" fill="#000" opacity="1">130</text><text text-anchor="end" transform="translate(-7,41.5)" font-family="sans-serif" font-size="13px" fill="#000" opacity="1">140</text><text text-anchor="end" transform="translate(-7,4)" font-family="sans-serif" font-size="13px" fill="#000" opacity="1">150</text></g><g class="mark-rule role-axis-domain" pointer-events="none"><line transform="translate(0,300)" x2="0" y2="-300" stroke="#888" stroke-width="1" opacity="1"/></g><g class="mark-text role-axis-title" pointer-events="none"><text text-anchor="middle" transform="translate(-32.68994140625,150) rotate(-90) translate(0,-3)" font-family="sans-serif" font-size="14px" font-weight="bold" fill="#000" opacity="1">Auditory Threshold (dB)</text></g></g><path class="foreground" aria-hidden="true" d="" pointer-events="none" display="none"/></g></g><g class="mark-line role-mark layer_0_marks" clip-path="url(#clip1)" role="graphics-object" aria-roledescription="line mark container"><path aria-label="Stimulus Frequency (Hz): 55; Auditory Threshold (dB): 105" role="graphics-symbol" aria-roledescription="line mark" d="M33,168.75L42,206.25L60,187.5L120,75" stroke="#4c78a8" stroke-width="2"/></g><g class="mark-symbol role-mark layer_1_marks" clip-path="url(#clip2)" role="graphics-object" aria-roledescription="symbol mark container" pointer-events="none"><path aria-label="Stimulus Frequency (Hz): 55; Auditory Threshold (dB): 105" role="graphics-symbol" aria-roledescription="point" transform="translate(33,168.75)" d="M5.477,0A5.477,5.477,0,1,1,-5.477,0A5.477,5.477,0,1,1,5.477,0" fill="#4c78a8" stroke-width="2" opacity="1"/><path aria-label="Stimulus Frequency (Hz): 70; Auditory Threshold (dB): 95" role="graphics-symbol" aria-roledescription="point" transform="translate(42.00000000000001,206.25)" d="M5.477,0A5.477,5.477,0,1,1,-5.477,0A5.477,5.477,0,1,1,5.477,0" fill="#4c78a8" stroke-width="2" opacity="1"/><path aria-label="Stimulus Frequency (Hz): 100; Auditory Threshold (dB): 100" role="graphics-symbol" aria-roledescription="point" transform="translate(60,187.5)" d="M5.477,0A5.477,5.477,0,1,1,-5.477,0A5.477,5.477,0,1,1,5.477,0" fill="#4c78a8" stroke-width="2" opacity="1"/><path aria-label="Stimulus Frequency (Hz): 200; Auditory Threshold (dB): 130" role="graphics-symbol" aria-roledescription="point" transform="translate(120,75)" d="M5.477,0A5.477,5.477,0,1,1,-5.477,0A5.477,5.477,0,1,1,5.477,0" fill="#4c78a8" stroke-width="2" opacity="1"/></g><g class="mark-group role-title"><g transform="translate(150,-34)"><path class="background" aria-hidden="true" d="M0,0h0v0h0Z" pointer-events="none"/><g><g class="mark-text role-title-text" role="graphics-symbol" aria-roledescription="title" aria-label="Title text 'Tentative Spotted Ratfish Audiogram'" pointer-events="none"><text text-anchor="middle" transform="translate(0,19)" font-family="sans-serif" font-size="24px" font-weight="bold" fill="#000" opacity="1">Tentative Spotted Ratfish Audiogram</text></g></g><path class="foreground" aria-hidden="true" d="" pointer-events="none" display="none"/></g></g></g><path class="foreground" aria-hidden="true" d="" display="none"/></g></g></g><defs><clipPath id="clip1"><rect x="0" y="0" width="300" height="300"/></clipPath><clipPath id="clip2"><rect x="0" y="0" width="300" height="300"/></clipPath></defs></svg>