<svg xmlns="http://www.w3.org/2000/svg" xmlns:xlink="http://www.w3.org/1999/xlink" version="1.1" class="marks" width="432" height="389" viewBox="0 0 432 389"><rect width="432" height="389" fill="white"/><g fill="none" stroke-miterlimit="10" transform="translate(66,41)"><g class="mark-group role-frame root" role="graphics-object" aria-roledescription="group mark container"><g transform="translate(0,0)"><path class="background" aria-hidden="true" d="M0.5,0.5h300v300h-300Z" stroke="#ddd"/><g><g class="mark-group role-axis" aria-hidden="true"><g transform="translate(0.5,300.5)"><path class="background" aria-hidden="true" d="M0,0h0v0h0Z" pointer-events="none"/><g><g class="mark-rule role-axis-grid" pointer-events="none"><line transform="translate(0,-300)" x2="0" y2="300" stroke="#ddd" stroke-width="1" opacity="1"/><line transform="translate(24,-300)" x2="0" y2="300" stroke="#ddd" stroke-width="1" opacity="1"/><line transform="translate(48,-300)" x2="0" y2="300" stroke="#ddd" stroke-width="1" opacity="1"/><line transform="translate(72,-300)" x2="0" y2="300" stroke="#ddd" stroke-width="1" opacity="1"/><line transform="translate(96,-300)" x2="0" y2="300" stroke="#ddd" stroke-width="1" opacity="1"/><line transform="translate(120,-300)" x2="0" y2="300" stroke="#ddd" stroke-width="1" opacity="1"/><line transform="translate(144,-300)" x2="0" y2="300" stroke="#ddd" stroke-width="1" opacity="1"/><line transform="translate(168,-300)" x2="0" y2="300" stroke="#ddd" stroke-width="1" opacity="1"/><line transform="translate(192,-300)" x2="0" y2="300" stroke="#ddd" stroke-width="1" opacity="1"/><line transform="translate(216,-300)" x2="0" y2="300" stroke="#ddd" stroke-width="1" opacity="1"/><line transform="translate(240,-300)" x2="0" y2="300" stroke="#ddd" stroke-width="1" opacity="1"/><line transform="translate(264,-300)" x2="0" y2="300" stroke="#ddd" stroke-width="1" opacity="1"/><line transform="translate(288,-300)" x2="0" y2="300" stroke="#ddd" stroke-width="1" opacity="1"/></g></g><path class="foreground" aria-hidden="true" d="" pointer-events="none" display="none"/></g></g><g class="mark-group role-axis" aria-hidden="true"><g transform="translate(0.5,0.5)"><path class="background" aria-hidden="true" d="M0,0h0v0h0Z" pointer-events="none"/><g><g class="mark-rule role-axis-grid" pointer-events="none"><line transform="translate(0,300)" x2="300" y2="0" stroke="#ddd" stroke-width="1" opacity="1"/><line transform="translate(0,250)" x2="300" y2="0" stroke="#ddd" stroke-width="1" opacity="1"/><line transform="translate(0,200)" x2="300" y2="0" stroke="#ddd" stroke-width="1" opacity="1"/><line transform="translate(0,150)" x2="300" y2="0" stroke="#ddd" stroke-width="1" opacity="1"/><line transform="translate(0,100)" x2="300" y2="0" stroke="#ddd" stroke-width="1" opacity="1"/><line transform="translate(0,50)" x2="300" y2="0" stroke="#ddd" stroke-width="1" opacity="1"/><line transform="translate(0,0)" x2="300" y2="0" stroke="#ddd" stroke-width="1" opacity="1"/></g></g><path class="foreground" aria-hidden="true" d="" pointer-events="none" display="none"/></g></g><g class="mark-group role-axis" role="graphics-symbol" aria-roledescription="axis" aria-label="X-axis titled 'Stimulus Frequency (Hz)' for a linear scale with values from 0 to 250"><g transform="translate(0.5,300.5)"><path class="background" aria-hidden="true" d="M0,0h0v0h0Z" pointer-events="none"/><g><g class="mark-rule role-axis-tick" pointer-events="none"><line transform="translate(0,0)" x2="0" y2="5" stroke="#888" stroke-width="1" opacity="1"/><line transform="translate(24,0)" x2="0" y2="5" stroke="#888" stroke-width="1" opacity="1"/><line transform="translate(48,0)" x2="0" y2="5" stroke="#888" stroke-width="1" opacity="1"/><line transform="translate(72,0)" x2="0" y2="5" stroke="#888" stroke-width="1" opacity="1"/><line transform="translate(96,0)" x2="0" y2="5" stroke="#888" stroke-width="1" opacity="1"/><line transform="translate(120,0)" x2="0" y2="5" stroke="#888" stroke-width="1" opacity="1"/><line transform="translate(144,0)" x2="0" y2="5" stroke="#888" stroke-width="1" opacity="1"/><line transform="translate(168,0)" x2="0" y2="5" stroke="#888" stroke-width="1" opacity="1"/><line transform="translate(192,0)" x2="0" y2="5" stroke="#888" stroke-width="1" opacity="1"/><line transform="translate(216,0)" x2="0" y2="5" stroke="#888" stroke-width="1" opacity="1"/><line transform="translate(240,0)" x2="0" y2="5" stroke="#888" stroke-width="1" opacity="1"/><line transform="translate(264,0)" x2="0" y2="5" stroke="#888" stroke-width="1" opacity="1"/><line transform="translate(288,0)" x2="0" y2="5" stroke="#888" stroke-width="1" opacity="1"/></g><g class="mark-text role-axis-label" pointer-events="none"><text text-anchor="start" transform="translate(0,20)" font-family="sans-serif" font-size="16px" fill="#000" opacity="1">0</text><text text-anchor="middle" transform="translate(24,20)" font-family="sans-serif" font-size="16px" fill="#000" opacity="0">20</text><text text-anchor="middle" transform="translate(48,20)" font-family="sans-serif" font-size="16px" fill="#000" opacity="1">40</text><text text-anchor="middle" transform="translate(72,20)" font-family="sans-serif" font-size="16px" fill="#000" opacity="0">60</text><text text-anchor="middle" transform="translate(96,20)" font-family="sans-serif" font-size="16px" fill="#000" opacity="1">80</text><text text-anchor="middle" transform="translate(120,20)" font-family="sans-serif" font-size="16px" fill="#000" opacity="0">100</text><text text-anchor="middle" transform="translate(144,20)" font-family="sans-serif" font-size="16px" fill="#000" opacity="1">120</text><text text-anchor="middle" transform="translate(168.00000000000003,20)" font-family="sans-serif" font-size="16px" fill="#000" opacity="0">140</text><text text-anchor="middle" transform="translate(192,20)" font-family="sans-serif" font-size="16px" fill="#000" opacity="1">160</text><text text-anchor="middle" transform="translate(216,20)" font-family="sans-serif" font-size="16px" fill="#000" opacity="0">180</text><text text-anchor="middle" transform="translate(240,20)" font-family="sans-serif" font-size="16px" fill="#000" opacity="1">200</text><text text-anchor="middle" transform="translate(264,20)" font-family="sans-serif" font-size="16px" fill="#000" opacity="0">220</text><text text-anchor="middle" transform="translate(288,20)" font-family="sans-serif" font-size="16px" fill="#000" opacity="1">240</text></g><g class="mark-rule role-axis-domain" pointer-events="none"><line transform="translate(0,0)" x2="300" y2="0" stroke="#888" stroke-width="1" opacity="1"/></g><g class="mark-text role-axis-title" pointer-events="none"><text text-anchor="middle" transform="translate(150,40)" font-family="sans-serif" font-size="17px" font-weight="bold" fill="#000" opacity="1">Stimulus Frequency (Hz)</text></g></g><path class="foreground" aria-hidden="true" d="" pointer-events="none" display="none"/></g></g><g class="mark-group role-axis" role="graphics-symbol" aria-roledescription="axis" aria-label="Y-axis titled 'Auditory Threshold (dB PAL)' for a linear scale with values from 50 to 110"><g transform="translate(0.5,0.5)"><path class="background" aria-hidden="true" d="M0,0h0v0h0Z" pointer-events="none"/><g><g class="mark-rule role-axis-tick" pointer-events="none"><line transform="translate(0,300)" x2="-5" y2="0" stroke="#888" stroke-width="1" opacity="1"/><line transform="translate(0,250)" x2="-5" y2="0" stroke="#888" stroke-width="1" opacity="1"/><line transform="translate(0,200)" x2="-5" y2="0" stroke="#888" stroke-width="1" opacity="1"/><line transform="translate(0,150)" x2="-5" y2="0" stroke="#888" stroke-width="1" opacity="1"/><line transform="translate(0,100)" x2="-5" y2="0" stroke="#888" stroke-width="1" opacity="1"/><line transform="translate(0,50)" x2="-5" y2="0" stroke="#888" stroke-width="1" opacity="1"/><line transform="translate(0,0)" x2="-5" y2="0" stroke="#888" stroke-width="1" opacity="1"/></g><g class="mark-text role-axis-label" pointer-events="none"><text text-anchor="end" transform="translate(-7,305)" font-family="sans-serif" font-size="16px" fill="#000" opacity="1">50</text><text text-anchor="end" transform="translate(-7,255)" font-family="sans-serif" font-size="16px" fill="#000" opacity="1">60</text><text text-anchor="end" transform="translate(-7,205.00000000000003)" font-family="sans-serif" font-size="16px" fill="#000" opacity="1">70</text><text text-anchor="end" transform="translate(-7,155)" font-family="sans-serif" font-size="16px" fill="#000" opacity="1">80</text><text text-anchor="end" transform="translate(-7,105.00000000000001)" font-family="sans-serif" font-size="16px" fill="#000" opacity="1">90</text><text text-anchor="end" transform="translate(-7,54.999999999999986)" font-family="sans-serif" font-size="16px" fill="#000" opacity="1">100</text><text text-anchor="end" transform="translate(-7,5)" font-family="sans-serif" font-size="16px" fill="#000" opacity="1">110</text></g><g class="mark-rule role-axis-domain" pointer-events="none"><line transform="translate(0,300)" x2="0" y2="-300" stroke="#888" stroke-width="1" opacity="1"/></g><g class="mark-text role-axis-title" pointer-events="none"><text text-anchor="middle" transform="translate(-37.6953125,150) rotate(-90) translate(0,-4)" font-family="sans-serif" font-size="17px" font-weight="bold" fill="#000" opacity="1">Auditory Threshold (dB PAL)</text></g></g><path class="foreground" aria-hidden="true" d="" pointer-events="none" display="none"/></g></g><g class="mark-line role-mark layer_0_marks" clip-path="url(#clip1)" role="graphics-object" aria-roledescription="line mark container"><path aria-label="Stimulus Frequency (Hz): 55; Auditory Threshold (dB PAL): 77" role="graphics-symbol" aria-roledescription="line mark" d="M66,165L84,270L120,155L240,130" stroke="#4c78a8" stroke-width="2"/></g><g class="mark-symbol role-mark layer_1_marks" clip-path="url(#clip2)" role="graphics-object" aria-roledescription="symbol mark container" pointer-events="none"><path aria-label="Stimulus Frequency (Hz): 55; Auditory Threshold (dB PAL): 77" role="graphics-symbol" aria-roledescription="point" transform="translate(66,165)" d="M5.477,0A5.477,5.477,0,1,1,-5.477,0A5.477,5.477,0,1,1,5.477,0" fill="#4c78a8" stroke-width="2" opacity="1"/><path aria-label="Stimulus Frequency (Hz): 70; Auditory Threshold (dB PAL): 56" role="graphics-symbol" aria-roledescription="point" transform="translate(84.00000000000001,270)" d="M5.477,0A5.477,5.477,0,1,1,-5.477,0A5.477,5.477,0,1,1,5.477,0" fill="#4c78a8" stroke-width="2" opacity="1"/><path aria-label="Stimulus Frequency (Hz): 100; Auditory Threshold (dB PAL): 79" role="graphics-symbol" aria-roledescription="point" transform="translate(120,154.99999999999997)" d="M5.477,0A5.477,5.477,0,1,1,-5.477,0A5.477,5.477,0,1,1,5.477,0" fill="#4c78a8" stroke-width="2" opacity="1"/><path aria-label="Stimulus Frequency (Hz): 200; Auditory Threshold (dB PAL): 84" role="graphics-symbol" aria-roledescription="point" transform="translate(240,130)" d="M5.477,0A5.477,5.477,0,1,1,-5.477,0A5.477,5.477,0,1,1,5.477,0" fill="#4c78a8" stroke-width="2" opacity="1"/></g><g class="mark-group role-title"><g transform="translate(150,-36)"><path class="background" aria-hidden="true" d="M0,0h0v0h0Z" pointer-events="none"/><g><g class="mark-text role-title-text" role="graphics-symbol" aria-roledescription="title" aria-label="Title text 'Tentative Spotted Ratfish Audiogram'" pointer-events="none"><text text-anchor="middle" transform="translate(0,19)" font-family="sans-serif" font-size="24px" font-weight="bold" fill="#000" opacity="1">Tentative Spotted Ratfish Audiogram</text></g></g><path class="foreground" aria-hidden="true" d="" pointer-events="none" display="none"/></g></g></g><path class="foreground" aria-hidden="true" d="" display="none"/></g></g></g><defs><clipPath id="clip1"><rect x="0" y="0" width="300" height="300"/></clipPath><clipPath id="clip2"><rect x="0" y="0" width="300" height="300"/></clipPath></defs></svg>